<svg xmlns="http://www.w3.org/2000/svg" viewBox="0 0 340 220"><defs>
<linearGradient id="chrome" x1="0" y1="0" x2="0" y2="1"><stop offset="0" stop-color="#F4F4F2"/><stop offset=".35" stop-color="#B8B8B4"/><stop offset=".55" stop-color="#EDEDE9"/><stop offset="1" stop-color="#6E6E6A"/></linearGradient>
<linearGradient id="plate" x1="0" y1="0" x2="1" y2="0"><stop offset="0" stop-color="#2B2B2B"/><stop offset=".4" stop-color="#5A5A58"/><stop offset=".6" stop-color="#3A3A39"/><stop offset="1" stop-color="#171717"/></linearGradient>
<linearGradient id="amb" x1="0" y1="0" x2="0" y2="1"><stop offset="0" stop-color="#FFD28F"/><stop offset="1" stop-color="#D98A25"/></linearGradient>
<filter id="bl"><feGaussianBlur stdDeviation="6"/></filter></defs>
<ellipse cx="170" cy="200" rx="140" ry="10" fill="#000" opacity=".35" filter="url(#bl)"/>
<g transform="rotate(-14 170 100)">
<rect x="70" y="92" width="200" height="18" rx="9" fill="url(#chrome)"/>
<path d="M118 92v18M222 92v18" stroke="#6E6E6A" stroke-width="2" opacity=".6"/>
<g><rect x="22" y="36" width="34" height="130" rx="10" fill="url(#plate)"/><rect x="22" y="60" width="34" height="6" fill="url(#amb)"/><rect x="56" y="52" width="22" height="98" rx="8" fill="url(#plate)"/><rect x="78" y="86" width="12" height="30" rx="3" fill="url(#chrome)"/><path d="M28 42v118" stroke="#fff" stroke-opacity=".25" stroke-width="3" stroke-linecap="round"/></g>
<g transform="translate(340 0) scale(-1 1)"><rect x="22" y="36" width="34" height="130" rx="10" fill="url(#plate)"/><rect x="22" y="60" width="34" height="6" fill="url(#amb)"/><rect x="56" y="52" width="22" height="98" rx="8" fill="url(#plate)"/><rect x="78" y="86" width="12" height="30" rx="3" fill="url(#chrome)"/><path d="M28 42v118" stroke="#fff" stroke-opacity=".25" stroke-width="3" stroke-linecap="round"/></g>
<path d="M100 95h140" stroke="#fff" stroke-opacity=".8" stroke-width="3" stroke-linecap="round"/>
</g></svg>